<?xml version="1.0" standalone="no"?>
<!DOCTYPE svg PUBLIC "-//W3C//DTD SVG 20010904//EN"
 "http://www.w3.org/TR/2001/REC-SVG-20010904/DTD/svg10.dtd">
<svg version="1.0" xmlns="http://www.w3.org/2000/svg"
 width="100.000000pt" height="100.000000pt" viewBox="0 0 100.000000 100.000000"
 preserveAspectRatio="xMidYMid meet">
<metadata>
Created by potrace 1.11, written by Peter Selinger 2001-2013
</metadata>
<g transform="translate(0.000000,100.000000) scale(0.100000,-0.100000)"
fill="#000000" stroke="none">
<path d="M455 970 c-75 -9 -124 -30 -192 -80 -63 -49 -75 -69 -75 -130 0 -71
7 -85 43 -85 38 0 63 -30 39 -45 -12 -8 -12 -10 -1 -10 10 0 12 -8 8 -30 -4
-16 -2 -32 3 -35 14 -8 0 -35 -17 -35 -9 0 -22 8 -29 18 -12 15 -14 8 -15 -48
-1 -80 -10 -115 -29 -116 -8 -1 -18 -2 -22 -4 -15 -5 -73 -7 -90 -3 -9 2 -19
15 -22 28 -4 14 -13 25 -21 25 -8 0 -15 8 -15 18 0 14 -2 15 -10 2 -5 -8 -10
-108 -10 -227 l0 -213 170 0 171 0 -15 28 c-8 16 -22 34 -30 41 -18 15 -21 37
-6 46 5 3 29 -5 53 -20 42 -24 44 -24 60 -7 24 26 21 37 -10 51 -27 12 -27 13
-8 27 22 16 61 19 70 4 3 -5 17 -10 30 -10 13 0 27 -5 31 -11 3 -6 14 -9 24
-6 10 2 23 1 29 -3 11 -6 41 -96 43 -127 1 -10 47 -13 195 -13 l193 0 0 180
c0 172 -1 180 -19 180 -27 0 -33 -13 -21 -44 6 -18 6 -26 -1 -26 -6 0 -7 -4
-4 -10 11 -18 -14 -10 -27 8 -19 26 -45 33 -62 17 -19 -20 -55 -19 -95 1 -21
10 -45 14 -67 11 -34 -6 -34 -5 -34 32 0 21 6 56 14 78 9 27 11 51 6 74 -7 32
-8 32 -9 7 -1 -31 -12 -36 -31 -13 -10 13 -10 19 4 33 22 26 20 39 -3 18 -11
-10 -25 -15 -30 -11 -6 3 -11 2 -11 -2 0 -5 -21 -15 -47 -22 -56 -16 -83 -37
-83 -63 0 -10 -7 -18 -15 -18 -8 0 -15 5 -15 11 0 6 -7 9 -15 5 -17 -6 -20 5
-4 21 7 7 6 12 -5 16 -9 4 -16 1 -16 -6 -1 -7 -13 13 -27 43 -15 30 -33 61
-40 68 -21 22 -27 63 -14 99 9 24 10 38 2 47 -14 16 53 72 136 114 87 45 148
47 163 8 5 -13 14 -27 19 -31 6 -3 11 -17 11 -29 0 -13 7 -29 16 -37 13 -11
12 -15 -15 -36 -37 -29 -45 -64 -9 -39 12 9 29 16 38 15 10 0 7 -4 -7 -11 -26
-12 -31 -38 -8 -38 12 0 14 -7 9 -27 -5 -23 -4 -26 6 -16 7 7 15 37 18 68 4
51 8 58 40 80 37 25 67 91 55 121 -9 24 -95 74 -127 74 -17 0 -56 7 -86 15
-30 8 -59 14 -65 14 -5 -1 -37 -5 -70 -9z m155 -522 c0 -5 -7 -9 -15 -9 -43
-4 -44 -5 -30 -39 10 -26 -33 -22 -51 5 -21 32 -10 63 24 67 28 3 72 -12 72
-24z m-293 -74 c7 3 12 1 10 -3 -3 -11 34 -44 106 -92 58 -40 62 -45 51 -73
-5 -13 -12 -11 -48 12 -49 32 -64 41 -134 82 -30 18 -49 36 -46 42 4 6 8 25 9
42 4 44 4 44 23 13 9 -15 22 -25 29 -23z"/>
<path d="M499 735 c36 -16 81 -21 66 -6 -6 5 -30 11 -55 15 l-45 6 34 -15z"/>
<path d="M464 696 c-18 -13 -16 -14 16 -12 19 2 44 4 55 5 17 1 18 3 5 11 -22
14 -53 12 -76 -4z"/>
<path d="M205 631 c-3 -5 -1 -12 5 -16 5 -3 10 1 10 9 0 18 -6 21 -15 7z"/>
<path d="M580 10 c0 -5 5 -10 11 -10 5 0 7 5 4 10 -3 6 -8 10 -11 10 -2 0 -4
-4 -4 -10z"/>
</g>
</svg>
